<svg xmlns="http://www.w3.org/2000/svg" width="162.5" height="41.634" viewBox="0 0 162.5 41.634"><g transform="translate(-129.818 -434.907)"><g transform="translate(154.105 469.068)"><path d="M392.223,610.382c-1.15-.393-1.544-.528-1.544-.9,0-.352.342-.581.881-.581a1.276,1.276,0,0,1,1.244,1.037l1.233-.943a2.4,2.4,0,0,0-2.477-1.628,2.32,2.32,0,0,0-2.56,2.146c0,1.3.735,1.751,2.436,2.322.839.28,1.181.56,1.181.912,0,.29-.279.528-.766.528a2.06,2.06,0,0,1-1.762-1.192l-1.265.964a3.031,3.031,0,0,0,2.871,1.782,2.351,2.351,0,0,0,2.643-2.228C394.337,611.429,393.808,610.921,392.223,610.382Z" transform="translate(-361.806 -607.366)" fill="#ff7e00"/><rect width="1.637" height="7.255" transform="translate(23.412 0.104)" fill="#ff7e00"/><path d="M254.065,607.893h-1.637v7.255h4.923v-1.555h-3.286Z" transform="translate(-252.428 -607.788)" fill="#ff7e00"/><path d="M287.533,607.365c-2.011,0-3.451,1.358-3.451,3.732s1.44,3.741,3.451,3.741,3.451-1.358,3.451-3.741S289.544,607.365,287.533,607.365Zm0,5.919c-1.068,0-1.731-.767-1.731-2.177s.663-2.187,1.731-2.187,1.73.768,1.73,2.187S288.6,613.284,287.533,613.284Z" transform="translate(-277.812 -607.365)" fill="#ff7e00"/><rect width="1.637" height="7.255" transform="translate(34.449 0.104)" fill="#ff7e00"/><path d="M333.22,611.893c0,1.357-.508,1.8-1.357,1.8-.9,0-1.358-.445-1.358-1.793v-4.011h-1.638v4.28a3,3,0,1,0,5.99,0v-4.28H333.22Z" transform="translate(-313.726 -607.788)" fill="#ff7e00"/><path d="M713.6,610.629h-2.57v-2.736h-1.637v7.255h1.637v-2.964h2.57v2.964h1.637v-7.255H713.6Z" transform="translate(-618.872 -607.788)" fill="#ff7e00"/><path d="M672.082,613.273c-.964,0-1.626-.756-1.626-2.166s.663-2.187,1.626-2.187c.725,0,1.13.467,1.213,1.379l1.555-.342a2.5,2.5,0,0,0-2.767-2.592c-1.876,0-3.347,1.358-3.347,3.732s1.471,3.73,3.347,3.73a2.827,2.827,0,0,0,3-2.456l-1.576-.342C673.264,612.807,672.88,613.273,672.082,613.273Z" transform="translate(-586.272 -607.365)" fill="#ff7e00"/><path d="M586.894,607.893h-1.979l-2.176,2.7v-2.7H581.1v7.255h1.638v-2.218l.611-.735,1.617,2.953h1.979l-2.415-4.394Z" transform="translate(-515.997 -607.788)" fill="#ff7e00"/><path d="M526.609,607.893l-2.435,7.255h1.659l.508-1.6h2.384l.508,1.6h1.658l-2.435-7.255Zm.2,4.156.726-2.291.725,2.291Z" transform="translate(-470.346 -607.788)" fill="#ff7e00"/><rect width="1.637" height="7.255" transform="translate(72.556 0.104)" fill="#ff7e00"/><path d="M489.664,612.608l-2.518-4.715h-1.9v7.255h1.638v-4.394l2.518,4.394h1.9v-7.255h-1.638Z" transform="translate(-439.132 -607.788)" fill="#ff7e00"/><path d="M445.411,607.893l-2.436,7.255h1.658l.508-1.6h2.383l.508,1.6h1.659l-2.435-7.255Zm.2,4.156.726-2.291.725,2.291Z" transform="translate(-405.231 -607.788)" fill="#ff7e00"/><path d="M752.042,612.224h2.943V610.67h-2.943v-1.223h3.3v-1.554H750.4v7.255h5v-1.555h-3.357Z" transform="translate(-651.763 -607.788)" fill="#ff7e00"/><path d="M789.771,612.608l-2.518-4.715h-1.9v7.255h1.637v-4.394l2.518,4.394h1.9v-7.255h-1.637Z" transform="translate(-679.793 -607.788)" fill="#ff7e00"/><path d="M635.355,609.447h1.969v5.7h1.637v-5.7h1.969v-1.554h-5.575Z" transform="translate(-559.504 -607.788)" fill="#ff7e00"/></g><g transform="translate(289.228 457.286)"><path d="M936.13,547.883a1.536,1.536,0,1,0,1.542,1.531A1.529,1.529,0,0,0,936.13,547.883Zm0,2.846a1.31,1.31,0,1,1,1.261-1.315A1.264,1.264,0,0,1,936.13,550.729Z" transform="translate(-934.581 -547.883)" fill="#ff7e00"/><path d="M940.532,551.649c0-.4-.257-.536-.71-.536h-.681v1.811h.352v-.776h.228l.444.776h.371l-.483-.792A.453.453,0,0,0,940.532,551.649Zm-1.038.221v-.478h.305c.169,0,.373.029.373.228,0,.221-.153.25-.355.25Z" transform="translate(-938.238 -550.473)" fill="#ff7e00"/></g><path d="M283.968,445.867c-1.344-.542-2.964-1.142-4.018-1.621-1.031-.468-1.4-.936-1.4-1.646,0-.942.974-1.456,2.214-1.456a6.283,6.283,0,0,1,4.713,2.3l4.18-4.346c-1.792-2.414-4.869-3.933-8.8-3.933-5.32,0-9.473,2.567-9.473,7.628,0,4,1.928,5.92,5.668,7.538,1.062.46,2.482.868,3.545,1.32.929.394,1.512.811,1.512,1.575,0,.707-.619,1.28-2.416,1.28a11.735,11.735,0,0,1-5.777-1.794l-2.542,5.2a14.016,14.016,0,0,0,8.327,2.468c4.638,0,9.611-2.009,9.611-7.408C289.321,448.909,286.719,446.977,283.968,445.867Zm-144.5-10.923c-2.814-.133-7.609.13-9.651.282l.164,6.087,1.956-.122v18.962h7.539v-4.739c11.018-.526,13.592-6.4,13.592-10.546C153.069,438.987,148.277,435.358,139.469,434.943Zm.008,14.558v-8.285c4.8.226,5.958,2.28,5.958,3.955C145.435,447.551,143.841,449.412,139.477,449.5Zm75.308-14.255c-7.28,0-12.318,5.281-12.318,12.556s4.747,12.689,13.089,12.689a15.254,15.254,0,0,0,9.612-2.936l-2.941-5.384a10.87,10.87,0,0,1-6.351,2.083c-3.141,0-4.993-1.435-5.7-3.926h16.047a20.2,20.2,0,0,0,.248-3.38C226.421,441.771,223.693,435.246,214.785,435.246Zm-4.676,9.983c.587-2.424,2.131-4.079,4.7-4.079a4.126,4.126,0,0,1,4.422,4.079Zm-43.7-9.832A12.436,12.436,0,1,0,179.1,447.831,12.344,12.344,0,0,0,166.412,435.4Zm.057,18.2c-3.364,0-5.5-2.588-5.5-5.81s2.133-5.811,5.5-5.811,5.5,2.587,5.5,5.811S169.833,453.594,166.469,453.594Zm75.018-17.463-4.725,10.185-4.525-10.185h-8.18l8.731,17.4v6.644h7.848v-6.634l9.184-17.411Zm-53.091-.938c-2.786-.131-7.534.129-9.555.279L179,441.5l1.937-.121v18.774H188.4V455.46c10.909-.521,13.457-6.338,13.457-10.442C201.861,439.2,197.116,435.6,188.4,435.193Zm.008,14.414v-8.2c4.756.224,5.9,2.258,5.9,3.916C194.3,447.676,192.725,449.519,188.4,449.607Zm70.717-14.361c-7.28,0-12.318,5.281-12.318,12.556s4.858,12.689,13.023,12.689a15.338,15.338,0,0,0,8.836-2.421l-2.712-5.578a10.4,10.4,0,0,1-5.8,1.762c-3.006,0-4.89-1.435-5.623-3.926h16.03a20.111,20.111,0,0,0,.251-3.38C270.757,441.771,268.029,435.246,259.121,435.246Zm-4.675,9.983c.587-2.424,2.13-4.079,4.7-4.079a4.132,4.132,0,0,1,4.422,4.079Z" transform="translate(0 0)" fill="#ff7e00"/></g></svg>